<mxfile host="app.diagrams.net" agent="Mozilla/5.0 (Windows NT 10.0; Win64; x64) AppleWebKit/537.36 (KHTML, like Gecko) Chrome/130.0.0.0 Safari/537.36" version="24.8.3">
  <diagram name="Pagina-1" id="AFxkBgVJjxG_SjftSaza">
    <mxGraphModel dx="238" dy="125" grid="1" gridSize="10" guides="1" tooltips="1" connect="1" arrows="1" fold="1" page="1" pageScale="1" pageWidth="827" pageHeight="1169" math="1" shadow="0">
      <root>
        <mxCell id="0" />
        <mxCell id="1" parent="0" />
        <mxCell id="v9JtZVCl_QxtcHbFWPB_-5" value="" style="endArrow=classic;startArrow=classic;html=1;rounded=0;" edge="1" parent="1">
          <mxGeometry width="50" height="50" relative="1" as="geometry">
            <mxPoint x="440" y="230" as="sourcePoint" />
            <mxPoint x="560" y="230" as="targetPoint" />
          </mxGeometry>
        </mxCell>
        <mxCell id="v9JtZVCl_QxtcHbFWPB_-6" value="\(\frac{l}{2}\)" style="edgeLabel;html=1;align=center;verticalAlign=middle;resizable=0;points=[];fontSize=19;" vertex="1" connectable="0" parent="v9JtZVCl_QxtcHbFWPB_-5">
          <mxGeometry x="-0.154" y="2" relative="1" as="geometry">
            <mxPoint x="9" as="offset" />
          </mxGeometry>
        </mxCell>
        <mxCell id="v9JtZVCl_QxtcHbFWPB_-7" value="" style="endArrow=none;html=1;rounded=0;" edge="1" parent="1" target="v9JtZVCl_QxtcHbFWPB_-2">
          <mxGeometry width="50" height="50" relative="1" as="geometry">
            <mxPoint x="440" y="320" as="sourcePoint" />
            <mxPoint x="440" y="200" as="targetPoint" />
          </mxGeometry>
        </mxCell>
        <mxCell id="v9JtZVCl_QxtcHbFWPB_-2" value="" style="shape=cylinder3;whiteSpace=wrap;html=1;boundedLbl=1;backgroundOutline=1;size=3.085728236607224;rotation=90;fillColor=#E89600;gradientColor=#875700;strokeColor=#000000;gradientDirection=west;" vertex="1" parent="1">
          <mxGeometry x="430" y="140" width="20" height="240" as="geometry" />
        </mxCell>
        <mxCell id="v9JtZVCl_QxtcHbFWPB_-8" value="" style="endArrow=classic;startArrow=classic;html=1;rounded=0;" edge="1" parent="1">
          <mxGeometry width="50" height="50" relative="1" as="geometry">
            <mxPoint x="320" y="230" as="sourcePoint" />
            <mxPoint x="440" y="230" as="targetPoint" />
          </mxGeometry>
        </mxCell>
        <mxCell id="v9JtZVCl_QxtcHbFWPB_-9" value="\(\frac{l}{2}\)" style="edgeLabel;html=1;align=center;verticalAlign=middle;resizable=0;points=[];fontSize=19;" vertex="1" connectable="0" parent="v9JtZVCl_QxtcHbFWPB_-8">
          <mxGeometry x="-0.154" y="2" relative="1" as="geometry">
            <mxPoint x="9" as="offset" />
          </mxGeometry>
        </mxCell>
        <mxCell id="v9JtZVCl_QxtcHbFWPB_-10" value="" style="endArrow=none;html=1;rounded=0;exitX=0;exitY=0.5;exitDx=0;exitDy=0;exitPerimeter=0;" edge="1" parent="1">
          <mxGeometry width="50" height="50" relative="1" as="geometry">
            <mxPoint x="439.89" y="260.00000000000006" as="sourcePoint" />
            <mxPoint x="439.89" y="210" as="targetPoint" />
          </mxGeometry>
        </mxCell>
      </root>
    </mxGraphModel>
  </diagram>
</mxfile>
